<svg xmlns="http://www.w3.org/2000/svg" viewBox="0 0 442.39 91.4" width="201" height="42">
	<title>polsatsport.pl</title>
	<path fill="#0098ff" d="M363.48,68.29c11.14,1.59,24.24-8.64,34.8-16.58,9.9-7.44,22.11-16.59,31.25-16.49,6,.06,11.22,3.5,12.86,8.14-.16-1.78-1-7-1.61-9.57-1.16-3.45-4.32-11.1-14.88-11.06-10.89.05-23.07,9.48-32.78,16.61-12.05,8.86-22.85,18.14-34.32,16-6.15-1.14-8.82-4-9.7-6.52a89.5,89.5,0,0,0,1.59,9.47C352.16,61.62,355.3,67.12,363.48,68.29Z" />
	<path fill="#00bdff" d="M410.9,2.52c-21.76-7.22-43.63,1.59-55.46,19.84,0,0,2.44,5.26,12.5-3.13C383.62,6.16,391.78.22,410.9,2.52Z" />
	<path fill="#00e1ff" d="M386.18,17c-4.82,3.53-11.82,8.88-16.78,12.2-5.87,3.92-14.07,9.45-18,2.15a37.15,37.15,0,0,0-1.7,7.23c.2,2.37,2.51,7.44,9.34,7.56,8.77.15,16.9-7.42,29.32-16.64,13.05-9.68,22.14-16,32.77-14.8,8.43,1,12.47,5,15.55,8.93a44.85,44.85,0,0,0-15-15.81C413.89,2.81,401.74,5.56,386.18,17Z" />
	<path fill="#0073ff" d="M380.48,88.88c21.76,7.21,43.63-1.59,55.46-19.85,0,0-2.44-5.25-12.5,3.14C407.77,85.24,399.6,91.18,380.48,88.88Z" />
	<path fill="#0073ff" d="M405.2,74.45C410,70.92,417,65.57,422,62.25c5.87-3.92,14.07-9.45,18-2.15a37.15,37.15,0,0,0,1.7-7.23c-.2-2.37-2.51-7.44-9.34-7.56-8.77-.15-16.9,7.42-29.32,16.64-13.05,9.68-22.14,16-32.77,14.8-8.43-1-12.47-5-15.55-8.93a44.85,44.85,0,0,0,15,15.81C377.49,88.59,389.64,85.84,405.2,74.45Z" />
	<path fill="#0073ff" d="M15.41,32.94c-5.35,0-8,2.61-8.57,7.82l-.51,0L7,33.59H0V67.12H7.26V59.34l-.58-5.59.49,0c.84,2.89,3.31,5,7.92,5,6.52,0,10.66-5.17,10.66-12.9S21.61,32.94,15.41,32.94Zm-2.23,19.7c-3.91,0-6-2.38-6-6.8s2.1-6.8,6-6.8,5.91,2.38,5.91,6.8S17,52.64,13.18,52.64Z" />
	<path fill="#0073ff" d="M41.63,32.94c-7.64,0-12.71,5.12-12.71,12.9S34,58.74,41.63,58.74s12.71-5.12,12.71-12.9S49.26,32.94,41.63,32.94Zm0,19.65c-4,0-6.06-2.33-6.06-6.75s2.1-6.75,6.06-6.75,6,2.37,6,6.75S45.59,52.59,41.63,52.59Z" />
	<path fill="#0073ff" d="M67.2,52.22c-1.53,0-2.28-.93-2.28-2.7V24.28H58V50.59c0,5,2.61,8.15,7.36,8.15a11.88,11.88,0,0,0,5.26-1.12l-.61-6A7.15,7.15,0,0,1,67.2,52.22Z" />
	<path fill="#0073ff" d="M87.56,43.19l-5.44-1.26c-1.73-.37-2.28-.79-2.28-1.68,0-1.26,1.07-1.77,3.67-1.77a21.83,21.83,0,0,1,8.71,2l.61-6a27.28,27.28,0,0,0-9.08-1.49c-6.48,0-10.34,2.84-10.34,7.59,0,4,1.82,6.15,6,7.22l5.45,1.4c2.14.55,2.74,1,2.74,2.09,0,1.4-1,1.86-3.86,1.86a22.3,22.3,0,0,1-9.27-1.72l-.65,6.19c2.52.84,5.31,1.17,9.92,1.17C90.13,58.74,94,56,94,50.82,94,47,92.13,44.26,87.56,43.19Z" />
	<path fill="#0073ff" d="M116.25,37.37l-.51,0c-1.12-2.65-3.08-4.47-7.73-4.47-6.66,0-10.85,5.17-10.85,12.9s4.14,12.9,10.33,12.9c5.36,0,8-2.84,8.57-8.38l.53,0-.81,7.69h7.13V33.59h-7Zm-6.52,15.27c-3.87,0-5.91-2.38-5.91-6.8s2-6.8,5.91-6.8,6,2.38,6,6.8S113.64,52.64,109.73,52.64Z" />
	<path fill="#0073ff" d="M140.29,52.22c-2.37,0-3.12-.79-3.12-3.45V39.88H143V33.59h-5.82V27.45l-6.89,1v5.12h-3.72v6.29h3.72V50.64c0,5.3,3.12,8.1,8,8.1a13.83,13.83,0,0,0,6.05-1.12l-.65-6.1A8.73,8.73,0,0,1,140.29,52.22Z" />
	<path fill="#00bdff" d="M167.69,50.92c0,5-3.93,8-10.35,8a24.62,24.62,0,0,1-10.11-2.2l1.41-5.19a23.3,23.3,0,0,0,8.61,1.73c2.62,0,4-.7,4-2.15,0-1.13-.56-1.69-2.57-2.11l-5-1.08c-4.35-1-6.46-3.32-6.46-7.3,0-4.73,4-7.63,10.49-7.63a21.45,21.45,0,0,1,9,1.92l-1.22,5.15a21.15,21.15,0,0,0-8-1.5c-2.53,0-3.84.65-3.84,1.92,0,.93.61,1.45,2.11,1.78l5.29,1.12C165.4,44.27,167.69,46.89,167.69,50.92Z" />
	<path fill="#00bdff" d="M171.67,33.64h7.07l-1,10V48L179,59.53v7.82h-7.3Zm7.21,20.23-2.39.18V40.67l2.06.18c.61-5.24,3.23-7.86,8.62-7.86,6.22,0,10.39,5.15,10.39,13s-4.17,13-10.72,13C182.2,58.92,179.72,56.77,178.88,53.87Zm12-7.91c0-4.45-2.06-6.84-6-6.84s-6,2.39-6,6.84,2.11,6.83,6,6.83S190.87,50.4,190.87,46Z" />
	<path fill="#00bdff" d="M226.3,46c0,7.81-5.1,13-12.78,13s-12.78-5.15-12.78-13,5.11-13,12.78-13S226.3,38.14,226.3,46Zm-6.69,0c0-4.41-2.11-6.79-6.09-6.79s-6.08,2.38-6.08,6.79,2.1,6.78,6.08,6.78S219.61,50.4,219.61,46Z" />
	<path fill="#00bdff" d="M230.7,33.64h6.6l-1,11.38,1.31,2V58.27H230.7Zm17.09,7.21L245,40.62c-5.62-.47-7.35,2.43-7.35,7.21l-2.48-.42.1-6.56,2.05.19c.75-5.38,2.95-8,7-8a9.84,9.84,0,0,1,3.74.7Z" />
	<path fill="#00bdff" d="M266.56,40H250V33.64h16.52Zm.71,11.57.65,6.18a13.08,13.08,0,0,1-6.08,1.21c-4.92,0-8.06-2.81-8.06-8.14V28.49l6.93-1V48.91c0,2.66.75,3.46,3.14,3.46A8.35,8.35,0,0,0,267.27,51.53Z" />
	<path fill="#0073ff" d="M270.31,54.48a4.36,4.36,0,1,1,4.35,4.35A4.1,4.1,0,0,1,270.31,54.48Z" />
	<path fill="#0073ff" d="M283.32,33.64h7.07l-1,10V48l1.22,11.56v7.82h-7.31Zm7.21,20.23-2.38.18V40.67l2.06.18c.6-5.24,3.23-7.86,8.61-7.86,6.23,0,10.39,5.15,10.39,13s-4.16,13-10.72,13C293.86,58.92,291.38,56.77,290.53,53.87Zm12-7.91c0-4.45-2.06-6.84-5.95-6.84s-6,2.39-6,6.84,2.11,6.83,6,6.83S302.52,50.4,302.52,46Z" />
	<path fill="#0073ff" d="M325.6,51.9l.65,6.18a15.32,15.32,0,0,1-5.66.84c-4.36,0-7.07-3.13-7.07-8.19V24.28h6.93V49.65c0,1.78.75,2.72,2.15,2.72A8.42,8.42,0,0,0,325.6,51.9Z" />
</svg>

